<mxfile host="app.diagrams.net" modified="2021-02-01T03:17:41.477Z" agent="5.0 (Macintosh; Intel Mac OS X 10_15_7) AppleWebKit/537.36 (KHTML, like Gecko) Chrome/88.0.4324.96 Safari/537.36" etag="wCe5KlTqG_cO3ZnAgAtF" version="14.2.4" type="github">
  <diagram id="rHR57I6DLGnxftyuOtbe" name="Page-1">
    <mxGraphModel dx="1948" dy="1760" grid="1" gridSize="10" guides="1" tooltips="1" connect="1" arrows="1" fold="1" page="1" pageScale="1" pageWidth="827" pageHeight="1169" math="0" shadow="0">
      <root>
        <mxCell id="0" />
        <mxCell id="1" parent="0" />
        <mxCell id="DV7GeYdOk8mDye4ZN2CC-16" style="edgeStyle=orthogonalEdgeStyle;curved=1;rounded=0;orthogonalLoop=1;jettySize=auto;html=1;entryX=0.5;entryY=0;entryDx=0;entryDy=0;" edge="1" parent="1" source="DV7GeYdOk8mDye4ZN2CC-1" target="DV7GeYdOk8mDye4ZN2CC-6">
          <mxGeometry relative="1" as="geometry" />
        </mxCell>
        <mxCell id="DV7GeYdOk8mDye4ZN2CC-1" value="&lt;b&gt;&lt;font style=&quot;font-size: 14px&quot;&gt;String&lt;/font&gt;&lt;/b&gt;" style="rounded=0;whiteSpace=wrap;html=1;fillColor=#d5e8d4;strokeColor=#82b366;" vertex="1" parent="1">
          <mxGeometry x="-16" y="-140" width="120" height="50" as="geometry" />
        </mxCell>
        <mxCell id="DV7GeYdOk8mDye4ZN2CC-17" style="edgeStyle=orthogonalEdgeStyle;curved=1;rounded=0;orthogonalLoop=1;jettySize=auto;html=1;entryX=0.5;entryY=0;entryDx=0;entryDy=0;" edge="1" parent="1" source="DV7GeYdOk8mDye4ZN2CC-2" target="DV7GeYdOk8mDye4ZN2CC-7">
          <mxGeometry relative="1" as="geometry" />
        </mxCell>
        <mxCell id="DV7GeYdOk8mDye4ZN2CC-18" style="edgeStyle=orthogonalEdgeStyle;curved=1;rounded=0;orthogonalLoop=1;jettySize=auto;html=1;entryX=0.5;entryY=0;entryDx=0;entryDy=0;" edge="1" parent="1" source="DV7GeYdOk8mDye4ZN2CC-2" target="DV7GeYdOk8mDye4ZN2CC-8">
          <mxGeometry relative="1" as="geometry" />
        </mxCell>
        <mxCell id="DV7GeYdOk8mDye4ZN2CC-2" value="&lt;font style=&quot;font-size: 14px&quot;&gt;&lt;b&gt;List&lt;/b&gt;&lt;/font&gt;" style="rounded=0;whiteSpace=wrap;html=1;fillColor=#d5e8d4;strokeColor=#82b366;" vertex="1" parent="1">
          <mxGeometry x="154" y="-140" width="120" height="50" as="geometry" />
        </mxCell>
        <mxCell id="DV7GeYdOk8mDye4ZN2CC-19" style="edgeStyle=orthogonalEdgeStyle;curved=1;rounded=0;orthogonalLoop=1;jettySize=auto;html=1;" edge="1" parent="1" source="DV7GeYdOk8mDye4ZN2CC-3" target="DV7GeYdOk8mDye4ZN2CC-9">
          <mxGeometry relative="1" as="geometry" />
        </mxCell>
        <mxCell id="DV7GeYdOk8mDye4ZN2CC-20" style="edgeStyle=orthogonalEdgeStyle;curved=1;rounded=0;orthogonalLoop=1;jettySize=auto;html=1;" edge="1" parent="1" source="DV7GeYdOk8mDye4ZN2CC-3" target="DV7GeYdOk8mDye4ZN2CC-8">
          <mxGeometry relative="1" as="geometry" />
        </mxCell>
        <mxCell id="DV7GeYdOk8mDye4ZN2CC-3" value="&lt;font style=&quot;font-size: 14px&quot;&gt;&lt;b&gt;Hash&lt;/b&gt;&lt;/font&gt;" style="rounded=0;whiteSpace=wrap;html=1;fillColor=#d5e8d4;strokeColor=#82b366;" vertex="1" parent="1">
          <mxGeometry x="344" y="-140" width="120" height="50" as="geometry" />
        </mxCell>
        <mxCell id="DV7GeYdOk8mDye4ZN2CC-21" style="edgeStyle=orthogonalEdgeStyle;curved=1;rounded=0;orthogonalLoop=1;jettySize=auto;html=1;entryX=0.5;entryY=0;entryDx=0;entryDy=0;" edge="1" parent="1" source="DV7GeYdOk8mDye4ZN2CC-4" target="DV7GeYdOk8mDye4ZN2CC-9">
          <mxGeometry relative="1" as="geometry" />
        </mxCell>
        <mxCell id="DV7GeYdOk8mDye4ZN2CC-22" style="edgeStyle=orthogonalEdgeStyle;curved=1;rounded=0;orthogonalLoop=1;jettySize=auto;html=1;entryX=0.5;entryY=0;entryDx=0;entryDy=0;" edge="1" parent="1" source="DV7GeYdOk8mDye4ZN2CC-4" target="DV7GeYdOk8mDye4ZN2CC-10">
          <mxGeometry relative="1" as="geometry" />
        </mxCell>
        <mxCell id="DV7GeYdOk8mDye4ZN2CC-4" value="&lt;font style=&quot;font-size: 14px&quot;&gt;&lt;b&gt;Set&lt;/b&gt;&lt;/font&gt;" style="rounded=0;whiteSpace=wrap;html=1;fillColor=#d5e8d4;strokeColor=#82b366;" vertex="1" parent="1">
          <mxGeometry x="524" y="-140" width="120" height="50" as="geometry" />
        </mxCell>
        <mxCell id="DV7GeYdOk8mDye4ZN2CC-23" style="edgeStyle=orthogonalEdgeStyle;curved=1;rounded=0;orthogonalLoop=1;jettySize=auto;html=1;entryX=0.5;entryY=0;entryDx=0;entryDy=0;" edge="1" parent="1" source="DV7GeYdOk8mDye4ZN2CC-5" target="DV7GeYdOk8mDye4ZN2CC-11">
          <mxGeometry relative="1" as="geometry" />
        </mxCell>
        <mxCell id="DV7GeYdOk8mDye4ZN2CC-24" style="edgeStyle=orthogonalEdgeStyle;curved=1;rounded=0;orthogonalLoop=1;jettySize=auto;html=1;entryX=0.5;entryY=1;entryDx=0;entryDy=0;exitX=0.5;exitY=1;exitDx=0;exitDy=0;" edge="1" parent="1" source="DV7GeYdOk8mDye4ZN2CC-5" target="DV7GeYdOk8mDye4ZN2CC-8">
          <mxGeometry relative="1" as="geometry">
            <mxPoint x="314" y="20" as="targetPoint" />
            <Array as="points">
              <mxPoint x="764" y="70" />
              <mxPoint x="314" y="70" />
            </Array>
          </mxGeometry>
        </mxCell>
        <mxCell id="DV7GeYdOk8mDye4ZN2CC-5" value="&lt;font style=&quot;font-size: 14px&quot;&gt;&lt;b&gt;Zset&lt;/b&gt;&lt;/font&gt;" style="rounded=0;whiteSpace=wrap;html=1;fillColor=#d5e8d4;strokeColor=#82b366;" vertex="1" parent="1">
          <mxGeometry x="704" y="-140" width="120" height="50" as="geometry" />
        </mxCell>
        <mxCell id="DV7GeYdOk8mDye4ZN2CC-6" value="SDS简单动态字符串" style="rounded=0;whiteSpace=wrap;html=1;fillColor=#f8cecc;strokeColor=#b85450;" vertex="1" parent="1">
          <mxGeometry x="-76" y="-40" width="120" height="50" as="geometry" />
        </mxCell>
        <mxCell id="DV7GeYdOk8mDye4ZN2CC-7" value="LinkedList双端列表" style="rounded=0;whiteSpace=wrap;html=1;fillColor=#f8cecc;strokeColor=#b85450;" vertex="1" parent="1">
          <mxGeometry x="94" y="-40" width="120" height="50" as="geometry" />
        </mxCell>
        <mxCell id="DV7GeYdOk8mDye4ZN2CC-8" value="zipList压缩列表" style="rounded=0;whiteSpace=wrap;html=1;fillColor=#f8cecc;strokeColor=#b85450;" vertex="1" parent="1">
          <mxGeometry x="254" y="-40" width="120" height="50" as="geometry" />
        </mxCell>
        <mxCell id="DV7GeYdOk8mDye4ZN2CC-9" value="Hash表" style="rounded=0;whiteSpace=wrap;html=1;fillColor=#f8cecc;strokeColor=#b85450;" vertex="1" parent="1">
          <mxGeometry x="414" y="-40" width="120" height="50" as="geometry" />
        </mxCell>
        <mxCell id="DV7GeYdOk8mDye4ZN2CC-10" value="整形数组" style="rounded=0;whiteSpace=wrap;html=1;fillColor=#f8cecc;strokeColor=#b85450;" vertex="1" parent="1">
          <mxGeometry x="594" y="-40" width="120" height="50" as="geometry" />
        </mxCell>
        <mxCell id="DV7GeYdOk8mDye4ZN2CC-11" value="skiplist跳表" style="rounded=0;whiteSpace=wrap;html=1;fillColor=#f8cecc;strokeColor=#b85450;" vertex="1" parent="1">
          <mxGeometry x="784" y="-40" width="120" height="50" as="geometry" />
        </mxCell>
        <mxCell id="DV7GeYdOk8mDye4ZN2CC-25" value="&lt;font style=&quot;font-size: 18px&quot;&gt;Redis数据类型与底层数据结构关系&lt;/font&gt;" style="text;html=1;strokeColor=none;fillColor=none;align=center;verticalAlign=middle;whiteSpace=wrap;rounded=0;" vertex="1" parent="1">
          <mxGeometry x="259" y="-200" width="290" height="40" as="geometry" />
        </mxCell>
      </root>
    </mxGraphModel>
  </diagram>
</mxfile>
